<svg xmlns="http://www.w3.org/2000/svg" viewBox="0 0 512 512">
  <defs>
    <linearGradient id="mnbaseBlue" x1="0%" y1="0%" x2="100%" y2="100%">
      <stop offset="0%" stop-color="#1652f0"/>
      <stop offset="100%" stop-color="#2f6bff"/>
    </linearGradient>
    <linearGradient id="mnbaseSoft" x1="0%" y1="0%" x2="100%" y2="100%">
      <stop offset="0%" stop-color="#ffffff" stop-opacity="0.95"/>
      <stop offset="100%" stop-color="#dbeafe" stop-opacity="0.95"/>
    </linearGradient>
  </defs>

  <rect x="24" y="24" width="464" height="464" rx="120" fill="url(#mnbaseBlue)"/>
  <circle cx="256" cy="176" r="54" fill="url(#mnbaseSoft)"/>
  <path d="M140 352V198c0-14 11-25 25-25h18c9 0 17 4 22 11l49 69 49-69c5-7 13-11 22-11h18c14 0 25 11 25 25v154c0 14-11 25-25 25h-12c-14 0-25-11-25-25v-77l-35 47c-5 7-13 10-21 10h-8c-8 0-16-3-21-10l-35-47v77c0 14-11 25-25 25h-12c-14 0-25-11-25-25z" fill="#ffffff"/>
</svg>